<svg xmlns="http://www.w3.org/2000/svg" viewBox="0 0 500 492.86"><defs><style>.cls-1{fill:none;}.cls-2{fill:#fff;}.cls-3{fill:#231f20;}</style></defs><g id="Layer_2" data-name="Layer 2"><g id="Layer_2-2" data-name="Layer 2"><path class="cls-1" d="M160.71,150a17.86,17.86,0,1,0,8,33.79q4.08-4.29,8.15-8.36a16.89,16.89,0,0,0,1.71-7.57A17.86,17.86,0,0,0,160.71,150Z"/><path class="cls-1" d="M428.57,53.57a17.86,17.86,0,1,0,22.64-17.21c-2.64-.15-5.35-.29-8-.36A17.82,17.82,0,0,0,428.57,53.57Z"/><path class="cls-1" d="M53.57,457.14a17.86,17.86,0,1,0-17.71-20c0,1.72,0,3.43.14,5.22A17.81,17.81,0,0,0,53.57,457.14Z"/><path class="cls-2" d="M443.21,36c2.65.07,5.36.21,8,.36a17.51,17.51,0,0,0-4.78-.65A16.21,16.21,0,0,0,443.21,36Z"/><path class="cls-3" d="M498.71,42A53.52,53.52,0,0,0,395.5,37.14a390.24,390.24,0,0,0-210.21,83.22,52,52,0,0,0-24.58-6.07,53.59,53.59,0,0,0-53.57,53.57,52.47,52.47,0,0,0,6.72,25.78,390.75,390.75,0,0,0-76.07,194.5,53.53,53.53,0,0,0,3,103.15,50.17,50.17,0,0,0,12.78,1.57,53.54,53.54,0,0,0,20-103.22A354.48,354.48,0,0,1,140.71,217.5a52.06,52.06,0,0,0,20,3.93,53.59,53.59,0,0,0,53.58-53.57,52.41,52.41,0,0,0-4.5-21.36A355,355,0,0,1,396.5,72.93a53.5,53.5,0,0,0,97.79,4.57A52.81,52.81,0,0,0,500,53.57,51.1,51.1,0,0,0,498.71,42Zm-463,397.29c0-.72.08-1.43.15-2.15a17.86,17.86,0,1,1,.14,5.22A14.74,14.74,0,0,1,35.71,439.29Zm133-255.5a17.84,17.84,0,1,1,9.86-15.93,16.89,16.89,0,0,1-1.71,7.57A17.5,17.5,0,0,1,168.71,183.79ZM464.29,53.57A17.86,17.86,0,1,1,443.21,36a16.21,16.21,0,0,1,3.22-.29,17.51,17.51,0,0,1,4.78.65A17.89,17.89,0,0,1,464.29,53.57Z"/><path class="cls-2" d="M176.86,175.43q-4.08,4.06-8.15,8.36A17.5,17.5,0,0,0,176.86,175.43Z"/><path class="cls-2" d="M35.71,439.29a14.74,14.74,0,0,0,.29,3.07c-.14-1.79-.14-3.5-.14-5.22C35.79,437.86,35.71,438.57,35.71,439.29Z"/></g></g></svg>