<svg xmlns="http://www.w3.org/2000/svg" viewBox="0 0 500 500"><defs><style>.cls-1{fill:none;}.cls-2{fill:#231f20;}</style></defs><g id="Layer_2" data-name="Layer 2"><g id="Layer_2-2" data-name="Layer 2"><path class="cls-1" d="M116.44,421.23a20.17,20.17,0,0,0-.14-2.05,17.06,17.06,0,0,0-17-15.07h-.07a17.13,17.13,0,1,0,17.19,17.12Z"/><path class="cls-1" d="M414.38,369.86A47.17,47.17,0,0,1,428,371.78,214.2,214.2,0,0,0,465.75,250C465.75,131,369,34.25,250,34.25A214.41,214.41,0,0,0,128.84,71.58a51.34,51.34,0,0,1-43.22,79.1,50.36,50.36,0,0,1-23.91-6A215.37,215.37,0,0,0,75,376a50.2,50.2,0,0,1,24.32-6.17,51.37,51.37,0,0,1,47.94,69.8,215.19,215.19,0,0,0,217.12-6.85A49.61,49.61,0,0,1,363,421.23,51.4,51.4,0,0,1,414.38,369.86Z"/><path class="cls-1" d="M68.49,99.32a17.07,17.07,0,0,0,12.67,16.5,16.34,16.34,0,0,0,4.46.62,17.13,17.13,0,0,0,17.12-17.12,16.17,16.17,0,0,0-1-5.83,17.12,17.12,0,0,0-33.22,5.83Z"/><path class="cls-1" d="M414.38,404.11a17.13,17.13,0,0,0-.13,34.25h.13a17.17,17.17,0,0,0,17.13-16.58v-.55A17.13,17.13,0,0,0,414.38,404.11Z"/><path class="cls-2" d="M500,250C500,112.12,387.88,0,250,0A248.81,248.81,0,0,0,100.07,50.07,50.51,50.51,0,0,0,85.62,48,51.38,51.38,0,0,0,34.25,99.32,49.58,49.58,0,0,0,37.81,118a249.44,249.44,0,0,0,13.9,284.1A50,50,0,0,0,48,421.23,51.38,51.38,0,0,0,99.32,472.6a50.57,50.57,0,0,0,25-6.57,249.6,249.6,0,0,0,258.56-4.32,50.6,50.6,0,0,0,31.5,10.89,51.38,51.38,0,0,0,51.37-51.37,50.68,50.68,0,0,0-9.65-29.86A248.71,248.71,0,0,0,500,250ZM101.71,93.49a16.17,16.17,0,0,1,1,5.83,17.13,17.13,0,0,1-17.12,17.12,16.34,16.34,0,0,1-4.46-.62,17.11,17.11,0,1,1,20.55-22.33ZM82.19,421.23a17.11,17.11,0,0,1,17.06-17.12h.07a17.06,17.06,0,0,1,17,15.07,20.17,20.17,0,0,1,.14,2.05,17.13,17.13,0,1,1-34.25,0ZM250,465.75a214.34,214.34,0,0,1-102.74-26.09,51.37,51.37,0,0,0-47.94-69.8A50.2,50.2,0,0,0,75,376a215.37,215.37,0,0,1-13.29-231.3,50.36,50.36,0,0,0,23.91,6,51.34,51.34,0,0,0,43.22-79.1A214.41,214.41,0,0,1,250,34.25C369,34.25,465.75,131,465.75,250A214.2,214.2,0,0,1,428,371.78a47.17,47.17,0,0,0-13.63-1.92A51.4,51.4,0,0,0,363,421.23a49.61,49.61,0,0,0,1.37,11.58A213.87,213.87,0,0,1,250,465.75Zm164.38-27.39h-.13a17.13,17.13,0,1,1,17.26-17.13v.55A17.17,17.17,0,0,1,414.38,438.36Z"/></g></g></svg>