<svg xmlns="http://www.w3.org/2000/svg" viewBox="0 0 500 500"><defs><style>.cls-1{fill:none;}.cls-2{fill:#231f20;}</style></defs><g id="Layer_2" data-name="Layer 2"><g id="Layer_2-2" data-name="Layer 2"><path class="cls-1" d="M343,55.34a17.11,17.11,0,0,0,16.64,13.15,17.92,17.92,0,0,0,5.48-.89,17.12,17.12,0,1,0-22.6-16.23A15,15,0,0,0,343,55.34Z"/><circle class="cls-1" cx="250" cy="243.15" r="17.12"/><path class="cls-1" d="M393.9,89.45a50.69,50.69,0,0,1-34.31,13.29,51.38,51.38,0,0,1-51.37-51.37,47.61,47.61,0,0,1,.82-8.9,215,215,0,0,0-59-8.22C131,34.25,34.25,131,34.25,250S131,465.75,250,465.75,465.75,369,465.75,250A214.92,214.92,0,0,0,393.9,89.45Zm-92.53,153.7A51.37,51.37,0,1,1,250,191.78a52.11,52.11,0,0,1,15.75,2.47l7.47-11.72,28.9,18.5-9,14.18A50.51,50.51,0,0,1,301.37,243.15Zm27.4-78.77h-41.1V123.29h41.1Z"/><path class="cls-2" d="M410.41,58.36a39.12,39.12,0,0,0,.55-7A51.38,51.38,0,0,0,359.59,0a50.87,50.87,0,0,0-32.95,12.05A249.18,249.18,0,0,0,250,0C112.12,0,0,112.12,0,250S112.12,500,250,500,500,387.88,500,250A249.64,249.64,0,0,0,410.41,58.36ZM359.59,34.25a17.13,17.13,0,0,1,5.48,33.35,17.92,17.92,0,0,1-5.48.89A17.11,17.11,0,0,1,343,55.34a15,15,0,0,1-.48-4A17.13,17.13,0,0,1,359.59,34.25ZM250,465.75C131,465.75,34.25,369,34.25,250S131,34.25,250,34.25a215,215,0,0,1,59,8.22,47.61,47.61,0,0,0-.82,8.9,51.38,51.38,0,0,0,51.37,51.37A50.69,50.69,0,0,0,393.9,89.45,214.92,214.92,0,0,1,465.75,250C465.75,369,369,465.75,250,465.75Z"/><rect class="cls-2" x="287.67" y="123.29" width="41.1" height="41.1"/><path class="cls-2" d="M273.22,182.53l-7.47,11.72A52.11,52.11,0,0,0,250,191.78a51.37,51.37,0,1,0,51.37,51.37,50.51,50.51,0,0,0-8.29-27.94l9-14.18ZM250,260.27a17.12,17.12,0,1,1,17.12-17.12A17.13,17.13,0,0,1,250,260.27Z"/></g></g></svg>