<svg xmlns="http://www.w3.org/2000/svg" viewBox="0 0 500 500"><defs><style>.cls-1{fill:none;}.cls-2{fill:#231f20;}</style></defs><g id="Layer_2" data-name="Layer 2"><g id="Layer_2-2" data-name="Layer 2"><ellipse class="cls-1" cx="446.86" cy="54.02" rx="17.71" ry="18.01"/><ellipse class="cls-1" cx="53.14" cy="445.98" rx="17.71" ry="18.01"/><path class="cls-2" d="M446.86,0c-29.3,0-53.14,24.23-53.14,54a54.43,54.43,0,0,0,4,20.4l-319,324.24A52.13,52.13,0,0,0,53.14,392C23.84,392,0,416.19,0,446s23.84,54,53.14,54,53.14-24.23,53.14-54a54.37,54.37,0,0,0-4-20.39l319-324.24A52.17,52.17,0,0,0,446.86,108C476.16,108,500,83.81,500,54S476.16,0,446.86,0ZM53.14,464a18,18,0,1,1,17.71-18A17.88,17.88,0,0,1,53.14,464ZM446.86,72a18,18,0,1,1,17.71-18A17.88,17.88,0,0,1,446.86,72Z"/></g></g></svg>