<svg xmlns="http://www.w3.org/2000/svg" viewBox="0 0 500 500"><defs><style>.cls-1{fill:none;}.cls-2{fill:#231f20;}</style></defs><g id="Layer_2" data-name="Layer 2"><g id="Layer_2-2" data-name="Layer 2"><path class="cls-1" d="M250,196.39a53.55,53.55,0,1,0,53.54,53.54A53.6,53.6,0,0,0,250,196.39Zm0,85.6a32.06,32.06,0,1,1,32.06-32.06A32.06,32.06,0,0,1,250,282Z"/><path class="cls-2" d="M500,232.09H337.44a89.49,89.49,0,0,0-69.59-69.59V0h-35.7V162.5a89.49,89.49,0,0,0-69.59,69.59H0v35.69H162.56a89.49,89.49,0,0,0,69.59,69.59V500h35.7V337.37a89.49,89.49,0,0,0,69.59-69.59H500ZM250,303.48a53.55,53.55,0,1,1,53.54-53.55A53.61,53.61,0,0,1,250,303.48Z"/><circle class="cls-2" cx="250" cy="249.93" r="32.06"/></g></g></svg>