<svg xmlns="http://www.w3.org/2000/svg" viewBox="0 0 485.69 500"><defs><style>.cls-1{fill:none;}.cls-2{fill:#231f20;}</style></defs><g id="Layer_2" data-name="Layer 2"><g id="Layer_2-2" data-name="Layer 2"><path class="cls-1" d="M49.9,66.67a16.64,16.64,0,0,0,16.63-16.2V50A16.63,16.63,0,1,0,49.9,66.67Z"/><path class="cls-1" d="M435.79,166.67a16.67,16.67,0,0,0,16.64-16.27V150a16.67,16.67,0,0,0-16.64-16.67,16.48,16.48,0,0,0-14.7,8.94,15.88,15.88,0,0,0-1.93,7.73A16.66,16.66,0,0,0,435.79,166.67Z"/><path class="cls-1" d="M452.43,370a16.64,16.64,0,1,0-16.64,16.67,18.16,18.16,0,0,0,3.33-.34c.6-.13,1.13-.26,1.6-.4A16.72,16.72,0,0,0,452.43,370Z"/><path class="cls-1" d="M171.86,423.27,386.09,366a49.8,49.8,0,0,1,33.07-43.07V197.07a49.88,49.88,0,0,1-29.67-28.47l-308-79.93a46.25,46.25,0,0,1-7.65,5.2l68.86,307.86A49.71,49.71,0,0,1,171.86,423.27Z"/><path class="cls-1" d="M122.69,465.07a15.73,15.73,0,0,0,7.05,1.6,16.72,16.72,0,1,0-7.05-1.6Z"/><path class="cls-2" d="M452.43,322.93V197.07a49.94,49.94,0,1,0-63.81-63.2L99,58.87A49.1,49.1,0,0,0,99.8,50,49.9,49.9,0,1,0,40.85,99.13l68.33,305.34a50,50,0,1,0,70.06,51.33h.07l215.37-57.53a49.9,49.9,0,1,0,57.75-75.34Zm-16.64,63.74a16.61,16.61,0,1,1,4.93-.74c-.47.14-1,.27-1.6.4A18.16,18.16,0,0,1,435.79,386.67Zm0-253.34A16.67,16.67,0,0,1,452.43,150v.4a16.64,16.64,0,0,1-33.27-.4,15.88,15.88,0,0,1,1.93-7.73A16.48,16.48,0,0,1,435.79,133.33Zm-400.66-91A16.63,16.63,0,0,1,66.53,50v.47a16.63,16.63,0,1,1-31.4-8.14ZM73.79,93.87a46.25,46.25,0,0,0,7.65-5.2L389.49,168.6a49.88,49.88,0,0,0,29.67,28.47V322.93A49.8,49.8,0,0,0,386.09,366L171.86,423.27a49.71,49.71,0,0,0-29.21-21.54ZM117,439.33a16.65,16.65,0,1,1,12.77,27.34,15.73,15.73,0,0,1-7.05-1.6A16.66,16.66,0,0,1,117,439.33Z"/></g></g></svg>