<svg xmlns="http://www.w3.org/2000/svg" viewBox="0 0 500 481.91"><defs><style>.cls-1{fill:none;}.cls-2{fill:#231f20;}</style></defs><g id="Layer_2" data-name="Layer 2"><g id="Layer_2-2" data-name="Layer 2"><path class="cls-1" d="M336.89,415.1a17.24,17.24,0,0,0-10.37-3.37,18.29,18.29,0,0,0-2.75.21,17.55,17.55,0,1,0,16.92,27.65,17.29,17.29,0,0,0,3.24-13A17.46,17.46,0,0,0,336.89,415.1Z"/><path class="cls-1" d="M52.88,238a18.29,18.29,0,0,0-3.88.42,17.86,17.86,0,0,0-11.06,7.72,17.5,17.5,0,0,0,5.57,24.22,17.62,17.62,0,0,0,26.57-18.74A17.65,17.65,0,0,0,52.88,238Z"/><path class="cls-1" d="M182.94,69.74a17.7,17.7,0,0,0,11-7.72,17.28,17.28,0,0,0,2.26-13.26,17.66,17.66,0,0,0-17.13-13.69,15.27,15.27,0,0,0-3.95.49,17.53,17.53,0,1,0,7.83,34.18Z"/><path class="cls-1" d="M457.5,250.73a17.8,17.8,0,0,0-10.37-3.36,18.29,18.29,0,0,0-2.75.21,17.57,17.57,0,0,0-11.49,7,17,17,0,0,0-3.17,13,17.62,17.62,0,0,0,34.82-5.41A17.83,17.83,0,0,0,457.5,250.73Z"/><path class="cls-2" d="M499.37,256.84A52.86,52.86,0,1,0,403.71,295l0,0-62.68,83.62h0a50.88,50.88,0,0,0-17.84-1.89h0L216.36,89.8a47.56,47.56,0,0,0,7.39-9.11A51.81,51.81,0,0,0,230.59,41V41A52.16,52.16,0,0,0,207.18,8.12,52.91,52.91,0,0,0,134.3,24.61,52.36,52.36,0,0,0,139.91,88l-75,116.24a53.11,53.11,0,0,0-23.74-.06,52.43,52.43,0,0,0-33.06,23.3,52,52,0,0,0-6.77,39.65,52.83,52.83,0,0,0,51.53,41,53,53,0,0,0,44.69-24.63,52.2,52.2,0,0,0,8.18-27.93,53.2,53.2,0,0,0-11.14-32.43h0l76.47-118.53h0a49.43,49.43,0,0,0,7.9.63c1.82,0,3.64-.14,5.46-.28L290.72,390.53h0a52.58,52.58,0,0,0,35.74,91.38,54.35,54.35,0,0,0,8.18-.63,52.62,52.62,0,0,0,44.13-60.15,51.6,51.6,0,0,0-9-22.1v0l62.63-83.56a51.46,51.46,0,0,0,14.64,2.1,54.35,54.35,0,0,0,8.18-.63,52.55,52.55,0,0,0,44.13-60.08ZM164.11,43.28a17.46,17.46,0,0,1,11-7.72,15.27,15.27,0,0,1,3.95-.49,17.66,17.66,0,0,1,17.13,13.69A17.28,17.28,0,0,1,193.93,62a17.66,17.66,0,0,1-32.07-5.47A17.29,17.29,0,0,1,164.11,43.28ZM67.75,264.91a17.67,17.67,0,0,1-24.24,5.48,17.5,17.5,0,0,1-5.57-24.22A17.86,17.86,0,0,1,49,238.45a18.29,18.29,0,0,1,3.88-.42,17.65,17.65,0,0,1,17.2,13.62A17.27,17.27,0,0,1,67.75,264.91ZM340.69,439.59a17.56,17.56,0,1,1-16.92-27.65,18.29,18.29,0,0,1,2.75-.21,17.24,17.24,0,0,1,10.37,3.37,17.46,17.46,0,0,1,7,11.44A17.29,17.29,0,0,1,340.69,439.59ZM449.81,282.25a17.51,17.51,0,0,1-20.09-14.6,17,17,0,0,1,3.17-13,17.57,17.57,0,0,1,11.49-7,18.29,18.29,0,0,1,2.75-.21,17.59,17.59,0,0,1,17.41,14.87A17.59,17.59,0,0,1,449.81,282.25Z"/></g></g></svg>