<svg xmlns="http://www.w3.org/2000/svg" viewBox="0 0 499.06 419.21"><defs><style>.cls-1{fill:none;}.cls-2{fill:#231f20;}</style></defs><g id="Layer_2" data-name="Layer 2"><g id="Layer_2-2" data-name="Layer 2"><circle class="cls-1" cx="236.22" cy="369.3" r="16.64"/><circle class="cls-1" cx="449.15" cy="196.3" r="16.64"/><circle class="cls-1" cx="236.22" cy="196.3" r="16.64"/><path class="cls-1" d="M399.25,196.3a49.79,49.79,0,0,1,33.27-47v-116H33.27v319.4h156a49.8,49.8,0,0,1,94,0H432.52V243.27A49.79,49.79,0,0,1,399.25,196.3Zm-163,49.9a49.91,49.91,0,1,1,49.91-49.9A49.93,49.93,0,0,1,236.22,246.2Z"/><path class="cls-2" d="M236.22,146.39a49.91,49.91,0,1,0,49.91,49.91A49.93,49.93,0,0,0,236.22,146.39Zm0,66.54a16.64,16.64,0,1,1,16.64-16.63A16.64,16.64,0,0,1,236.22,212.93Z"/><path class="cls-2" d="M465.79,149.32V0H0V385.94H189.24a49.8,49.8,0,0,0,94,0H465.79V243.27a49.8,49.8,0,0,0,0-94Zm-16.64,63.61a16.64,16.64,0,1,1,16.64-16.63A16.64,16.64,0,0,1,449.15,212.93ZM252.86,369.3a16.64,16.64,0,1,1-16.64-16.63A16.65,16.65,0,0,1,252.86,369.3Zm179.66-16.63H283.2a49.8,49.8,0,0,0-94,0h-156V33.27H432.52v116a49.8,49.8,0,0,0,0,94Z"/></g></g></svg>