<svg xmlns="http://www.w3.org/2000/svg" viewBox="0 0 500 416.67"><defs><style>.cls-1{fill:none;}.cls-2{fill:#231f20;}</style></defs><g id="Layer_2" data-name="Layer 2"><g id="Layer_2-2" data-name="Layer 2"><circle class="cls-1" cx="451.92" cy="48.08" r="16.03"/><path class="cls-1" d="M93.33,352.56H406.67a47.57,47.57,0,0,1,29.23-29.23v-230A47.52,47.52,0,0,1,406.67,64.1H64.1V323.33A47.57,47.57,0,0,1,93.33,352.56Z"/><circle class="cls-1" cx="451.92" cy="368.59" r="16.03"/><circle class="cls-1" cx="48.08" cy="368.59" r="16.03"/><path class="cls-2" d="M468,323.33v-230a48,48,0,1,0-61.28-61.28H32.05V323.33a48,48,0,1,0,61.28,61.29H406.67A48,48,0,1,0,468,323.33ZM435.9,368.59a16,16,0,1,1,16,16A16,16,0,0,1,435.9,368.59ZM468,48.08a16,16,0,1,1-16-16A16,16,0,0,1,468,48.08ZM64.1,64.1H406.67A47.52,47.52,0,0,0,435.9,93.33v230a47.57,47.57,0,0,0-29.23,29.23H93.33A47.57,47.57,0,0,0,64.1,323.33Zm-32,304.49a16,16,0,1,1,16,16A16,16,0,0,1,32.05,368.59Z"/></g></g></svg>