<svg xmlns="http://www.w3.org/2000/svg" viewBox="0 0 500 500"><defs><style>.cls-1{fill:none;}.cls-2{fill:#fff;}.cls-3{fill:#231f20;}</style></defs><g id="Layer_2" data-name="Layer 2"><g id="Layer_2-2" data-name="Layer 2"><path class="cls-1" d="M397.45,70.42h-327v327a52.94,52.94,0,0,1,32.13,32.13h327v-327A52.94,52.94,0,0,1,397.45,70.42Zm-249.56,324H105.63V352.11h42.26Zm49.29-49.3H154.93V302.82h42.25Zm49.3-49.3H204.23V253.52h42.25Zm49.29-49.29H253.52V204.23h42.25Zm49.3-49.3H302.82V154.93h42.25Zm56.34-49.29H359.15V105.63h42.26Z"/><circle class="cls-2" cx="447.18" cy="52.82" r="17.61"/><path class="cls-3" d="M500,52.82A52.78,52.78,0,0,0,397.45,35.21H35.21V397.45a52.78,52.78,0,1,0,67.34,67.34H464.79V102.55A52.85,52.85,0,0,0,500,52.82Zm-52.82,17.6a17.61,17.61,0,1,1,17.61-17.6A17.61,17.61,0,0,1,447.18,70.42Zm-412,376.76a17.61,17.61,0,1,1,17.61,17.61A17.62,17.62,0,0,1,35.21,447.18Zm67.34-17.6a52.94,52.94,0,0,0-32.13-32.13v-327h327a52.94,52.94,0,0,0,32.13,32.13v327Z"/><circle class="cls-2" cx="52.82" cy="447.18" r="17.61"/><rect class="cls-3" x="105.63" y="352.11" width="42.25" height="42.25"/><rect class="cls-3" x="154.93" y="302.82" width="42.25" height="42.25"/><rect class="cls-3" x="204.23" y="253.52" width="42.25" height="42.25"/><rect class="cls-3" x="253.52" y="204.23" width="42.25" height="42.25"/><rect class="cls-3" x="302.82" y="154.93" width="42.25" height="42.25"/><rect class="cls-3" x="359.15" y="105.63" width="42.25" height="42.25"/></g></g></svg>