<?xml version="1.0" encoding="UTF-8" standalone="no"?>
<!DOCTYPE svg PUBLIC "-//W3C//DTD SVG 1.1//EN" "http://www.w3.org/Graphics/SVG/1.1/DTD/svg11.dtd">
<svg width="100%" height="100%" viewBox="0 0 512 512" version="1.1" xmlns="http://www.w3.org/2000/svg" xmlns:xlink="http://www.w3.org/1999/xlink" xml:space="preserve" xmlns:serif="http://www.serif.com/" style="fill-rule:evenodd;clip-rule:evenodd;stroke-linejoin:round;stroke-miterlimit:2;">
    <g transform="matrix(1.04393,0,0,1.04393,-2096.75,-1027.99)">
        <path d="M2365.01,1142.97L2408.53,1191.88L2365.01,1191.88L2365.01,1142.97ZM2312.3,1191.88L2312.3,1142.47C2321.59,1139.28 2330.39,1135.31 2338.62,1130.64L2338.62,1191.88L2312.3,1191.88ZM2170.4,1133.01C2178.66,1137.35 2187.45,1141.04 2196.73,1143.94L2196.73,1191.88L2170.4,1191.88L2170.4,1133.01ZM2100.5,1191.88L2144.02,1142.97L2144.02,1191.88L2100.5,1191.88ZM2231.82,1191.88L2207.28,1191.88L2207.28,1146.83C2215.22,1148.77 2223.42,1150.18 2231.82,1151.07L2231.82,1191.88ZM2266.78,1151.72L2266.78,1191.88L2242.37,1191.88L2242.37,1151.91C2245.68,1152.07 2248.98,1152.26 2252.33,1152.26C2257.2,1152.26 2262.02,1152.07 2266.78,1151.72ZM2301.74,1145.68L2301.74,1191.88L2277.34,1191.88L2277.34,1150.56C2285.71,1149.47 2293.86,1147.83 2301.74,1145.68ZM2435.24,1191.88L2426.18,1191.88L2365.01,1123.12L2365.01,1118.22C2365.01,1110.93 2359.1,1105.02 2351.81,1105.02C2345.72,1105.02 2340.81,1109.24 2339.3,1114.86C2315.59,1130.3 2284.53,1139.06 2252.33,1139.06C2221.88,1139.06 2193.22,1131.64 2170.36,1118.01C2170.25,1110.83 2164.42,1105.02 2157.21,1105.02C2149.92,1105.02 2144.02,1110.93 2144.02,1118.22L2144.02,1123.12L2082.84,1191.88L2073.79,1191.88C2068.32,1191.88 2063.89,1196.31 2063.89,1201.77C2063.89,1207.24 2068.32,1211.67 2073.79,1211.67L2144.02,1211.67L2144.02,1258.95C2144.02,1266.23 2149.92,1272.14 2157.21,1272.14C2164.5,1272.14 2170.4,1266.23 2170.4,1258.95L2170.4,1211.67L2338.62,1211.67L2338.62,1258.95C2338.62,1266.23 2344.53,1272.14 2351.81,1272.14C2359.1,1272.14 2365.01,1266.23 2365.01,1258.95L2365.01,1211.67L2435.24,1211.67C2440.7,1211.67 2445.13,1207.24 2445.13,1201.77C2445.13,1196.31 2440.7,1191.88 2435.24,1191.88Z" style="fill:rgb(32,58,114);fill-rule:nonzero;"/>
    </g>
    <g transform="matrix(1.04393,0,0,1.04393,-2096.75,-1027.99)">
        <path d="M2246.21,1304.51L2248.43,1269.99L2260.6,1269.99L2262.81,1304.51L2246.21,1304.51ZM2295.3,1234.17L2258.3,1234.17L2259.86,1258.58L2249.16,1258.58L2250.73,1234.17L2213.72,1234.17C2211.25,1234.17 2209.11,1235.89 2208.57,1238.31L2183.56,1350.85C2182.83,1354.15 2185.34,1357.27 2188.71,1357.27L2242.83,1357.27L2245.15,1321.05L2263.87,1321.05L2266.2,1357.27L2320.31,1357.27C2323.69,1357.27 2326.2,1354.15 2325.46,1350.85L2300.45,1238.31C2299.92,1235.89 2297.77,1234.17 2295.3,1234.17Z" style="fill:rgb(32,58,114);fill-rule:nonzero;"/>
    </g>
</svg>
