<?xml version="1.0" encoding="UTF-8" standalone="no"?>
<!DOCTYPE svg PUBLIC "-//W3C//DTD SVG 1.1//EN" "http://www.w3.org/Graphics/SVG/1.1/DTD/svg11.dtd">
<svg width="100%" height="100%" viewBox="0 0 512 512" version="1.1" xmlns="http://www.w3.org/2000/svg" xmlns:xlink="http://www.w3.org/1999/xlink" xml:space="preserve" xmlns:serif="http://www.serif.com/" style="fill-rule:evenodd;clip-rule:evenodd;stroke-linejoin:round;stroke-miterlimit:2;">
    <g transform="matrix(1.48577,0,0,1.39317,-3798.13,-1444.57)">
        <path d="M2638.74,1225.62L2623.65,1204.48C2627.06,1201.34 2632.16,1197.54 2638.96,1194.38L2638.74,1225.62ZM2698.08,1188.12L2759.03,1188.12C2765.91,1188.12 2771.48,1182.55 2771.48,1175.67C2771.48,1168.78 2765.91,1163.21 2759.03,1163.21L2686.14,1163.21L2674.52,1198.61L2671.74,1176.08L2673.59,1176.08C2674.71,1176.08 2675.61,1175.17 2675.61,1174.06L2675.61,1167.83C2675.61,1166.72 2674.71,1165.82 2673.59,1165.82L2663.45,1165.82C2662.34,1165.82 2661.43,1166.72 2661.43,1167.83L2661.43,1174.06C2661.43,1175.17 2662.34,1176.08 2663.45,1176.08L2665.3,1176.08L2662.52,1198.61L2651.38,1164.66C2615.08,1170.92 2598.19,1195.52 2597.39,1196.72C2594.51,1201.03 2594.6,1206.66 2597.61,1210.88L2619.43,1241.45C2621.86,1244.85 2625.69,1246.67 2629.58,1246.67C2632.08,1246.67 2634.61,1245.91 2636.81,1244.35C2637.48,1243.87 2638.08,1243.33 2638.62,1242.76L2638.56,1251.43L2630.86,1343.87C2630.23,1351.49 2635.89,1358.17 2643.51,1358.81C2643.9,1358.84 2644.28,1358.85 2644.67,1358.85C2651.79,1358.85 2657.85,1353.39 2658.45,1346.16L2665.85,1257.28L2671.25,1257.28L2678.64,1346.16C2679.28,1353.78 2685.95,1359.38 2693.58,1358.81C2701.2,1358.17 2706.87,1351.49 2706.23,1343.87L2698.54,1251.43L2698.08,1188.12Z" style="fill:rgb(32,58,114);fill-rule:nonzero;"/>
    </g>
    <g transform="matrix(1.48577,0,0,1.39317,-3798.13,-1444.57)">
        <path d="M2640.95,1131.61C2640.95,1146.85 2653.28,1159.18 2668.52,1159.18C2683.76,1159.18 2696.09,1146.85 2696.09,1131.61C2696.09,1131.32 2696.09,1131.03 2696.04,1130.8L2641.01,1130.8C2640.95,1131.03 2640.95,1131.32 2640.95,1131.61Z" style="fill:rgb(32,58,114);fill-rule:nonzero;"/>
    </g>
    <g transform="matrix(1.48577,0,0,1.39317,-3798.13,-1444.57)">
        <path d="M2639.06,1124.37L2698.03,1124.37C2700.25,1124.37 2702.05,1122.56 2702.05,1120.34C2702.05,1118.11 2700.25,1116.31 2698.03,1116.31L2696.86,1116.31C2695.08,1107.25 2689.07,1099.74 2680.93,1095.87L2680.12,1100.75C2679.86,1102.31 2678.51,1103.42 2676.97,1103.42C2676.79,1103.42 2676.62,1103.41 2676.44,1103.38C2674.7,1103.09 2673.52,1101.44 2673.81,1099.7L2675.16,1091.56C2675.4,1090.06 2674.24,1088.69 2672.72,1088.69L2664.37,1088.69C2662.85,1088.69 2661.69,1090.06 2661.94,1091.56L2663.28,1099.7C2663.57,1101.44 2662.39,1103.09 2660.65,1103.38C2660.47,1103.41 2660.3,1103.42 2660.12,1103.42C2658.58,1103.42 2657.23,1102.31 2656.97,1100.75L2656.16,1095.87C2648.03,1099.74 2642.01,1107.25 2640.23,1116.31L2639.06,1116.31C2636.84,1116.31 2635.04,1118.11 2635.04,1120.34C2635.04,1122.56 2636.84,1124.37 2639.06,1124.37Z" style="fill:rgb(32,58,114);fill-rule:nonzero;"/>
    </g>
    <g transform="matrix(1.48577,0,0,1.39317,-3798.13,-1444.57)">
        <path d="M2719.75,1210.95L2719.75,1233.78C2719.75,1236.13 2721.66,1238.04 2724.01,1238.04L2782.4,1238.04C2784.75,1238.04 2786.66,1236.13 2786.66,1233.78L2786.66,1210.95C2786.66,1208.6 2784.75,1206.69 2782.4,1206.69L2724.01,1206.69C2721.66,1206.69 2719.75,1208.6 2719.75,1210.95Z" style="fill:rgb(32,58,114);fill-rule:nonzero;"/>
    </g>
    <g transform="matrix(1.48577,0,0,1.39317,-3798.13,-1444.57)">
        <path d="M2724.01,1248.45C2721.66,1248.45 2719.75,1250.36 2719.75,1252.71L2719.75,1275.53C2719.75,1277.88 2721.66,1279.79 2724.01,1279.79L2747.41,1279.79C2749.76,1279.79 2751.67,1277.88 2751.67,1275.53L2751.67,1252.71C2751.67,1250.36 2749.76,1248.45 2747.41,1248.45L2724.01,1248.45Z" style="fill:rgb(32,58,114);fill-rule:nonzero;"/>
    </g>
    <g transform="matrix(1.48577,0,0,1.39317,-3798.13,-1444.57)">
        <path d="M2782.4,1290.2L2724.01,1290.2C2721.66,1290.2 2719.75,1292.11 2719.75,1294.46L2719.75,1317.29C2719.75,1319.64 2721.66,1321.55 2724.01,1321.55L2782.4,1321.55C2784.75,1321.55 2786.66,1319.64 2786.66,1317.29L2786.66,1294.46C2786.66,1292.11 2784.75,1290.2 2782.4,1290.2Z" style="fill:rgb(32,58,114);fill-rule:nonzero;"/>
    </g>
    <g transform="matrix(1.48577,0,0,1.39317,-3798.13,-1444.57)">
        <path d="M2859.71,1206.69L2801.33,1206.69C2798.98,1206.69 2797.07,1208.6 2797.07,1210.95L2797.07,1233.78C2797.07,1236.13 2798.98,1238.04 2801.33,1238.04L2859.71,1238.04C2862.06,1238.04 2863.97,1236.13 2863.97,1233.78L2863.97,1210.95C2863.97,1208.6 2862.06,1206.69 2859.71,1206.69Z" style="fill:rgb(32,58,114);fill-rule:nonzero;"/>
    </g>
    <g transform="matrix(1.48577,0,0,1.39317,-3798.13,-1444.57)">
        <path d="M2762.08,1252.71L2762.08,1275.53C2762.08,1277.88 2763.99,1279.79 2766.34,1279.79L2817.38,1279.79C2819.73,1279.79 2821.64,1277.88 2821.64,1275.53L2821.64,1252.71C2821.64,1250.36 2819.73,1248.45 2817.38,1248.45L2766.34,1248.45C2763.99,1248.45 2762.08,1250.36 2762.08,1252.71Z" style="fill:rgb(32,58,114);fill-rule:nonzero;"/>
    </g>
    <g transform="matrix(1.48577,0,0,1.39317,-3798.13,-1444.57)">
        <path d="M2859.71,1248.45L2836.32,1248.45C2833.96,1248.45 2832.06,1250.36 2832.06,1252.71L2832.06,1275.53C2832.06,1277.88 2833.96,1279.79 2836.32,1279.79L2859.71,1279.79C2862.06,1279.79 2863.97,1277.88 2863.97,1275.53L2863.97,1252.71C2863.97,1250.36 2862.06,1248.45 2859.71,1248.45Z" style="fill:rgb(32,58,114);fill-rule:nonzero;"/>
    </g>
    <g transform="matrix(1.48577,0,0,1.39317,-3798.13,-1444.57)">
        <path d="M2859.71,1290.2L2801.33,1290.2C2798.98,1290.2 2797.07,1292.11 2797.07,1294.46L2797.07,1317.29C2797.07,1319.64 2798.98,1321.55 2801.33,1321.55L2859.71,1321.55C2862.06,1321.55 2863.97,1319.64 2863.97,1317.29L2863.97,1294.46C2863.97,1292.11 2862.06,1290.2 2859.71,1290.2Z" style="fill:rgb(32,58,114);fill-rule:nonzero;"/>
    </g>
</svg>
