<?xml version="1.0" encoding="UTF-8" standalone="no"?>
<!DOCTYPE svg PUBLIC "-//W3C//DTD SVG 1.1//EN" "http://www.w3.org/Graphics/SVG/1.1/DTD/svg11.dtd">
<svg width="100%" height="100%" viewBox="0 0 512 512" version="1.1" xmlns="http://www.w3.org/2000/svg" xmlns:xlink="http://www.w3.org/1999/xlink" xml:space="preserve" xmlns:serif="http://www.serif.com/" style="fill-rule:evenodd;clip-rule:evenodd;stroke-linejoin:round;stroke-miterlimit:2;">
    <g transform="matrix(1.5186,0,0,1.5186,-1724.41,-1601.24)">
        <path d="M1301.2,1272.23C1305.54,1267.02 1311.99,1264.13 1318.74,1264.13C1319.32,1264.13 1319.99,1264.13 1320.66,1264.23L1325.67,1253.35C1318.74,1237.45 1305.06,1225.31 1288.39,1220.11C1286.18,1219.44 1283.87,1220.78 1283.1,1222.9L1260.55,1287.54L1255.35,1245.25L1258.82,1245.25C1260.84,1245.25 1262.58,1243.52 1262.58,1241.49L1262.58,1229.84C1262.58,1227.82 1260.84,1226.08 1258.82,1226.08L1239.84,1226.08C1237.82,1226.08 1236.09,1227.82 1236.09,1229.84L1236.09,1241.49C1236.09,1243.52 1237.82,1245.25 1239.84,1245.25L1243.31,1245.25L1238.11,1287.54L1215.57,1222.9C1214.8,1220.78 1212.49,1219.44 1210.27,1220.11C1188.11,1227.05 1171.26,1246.21 1168.37,1270.3L1165.38,1304.98C1164.51,1314.99 1172.41,1323.66 1182.53,1323.66L1293.5,1323.76C1293.79,1322.22 1294.37,1320.78 1295.04,1319.23L1302.36,1303.44C1298.41,1299.58 1296.1,1294.48 1295.72,1288.89C1295.23,1282.72 1297.26,1276.75 1301.2,1272.23Z" style="fill:rgb(255,255,255);fill-rule:nonzero;"/>
    </g>
    <g transform="matrix(1.5186,0,0,1.5186,-1724.41,-1601.24)">
        <path d="M1203.64,1167.77C1203.64,1193.01 1224.07,1213.43 1249.3,1213.43C1274.54,1213.43 1294.96,1193.01 1294.96,1167.77C1294.96,1167.29 1294.96,1166.81 1294.87,1166.42L1203.74,1166.42C1203.64,1166.81 1203.64,1167.29 1203.64,1167.77Z" style="fill:rgb(255,255,255);fill-rule:nonzero;"/>
    </g>
    <g transform="matrix(1.5186,0,0,1.5186,-1724.41,-1601.24)">
        <path d="M1200.52,1155.78L1298.16,1155.78C1301.85,1155.78 1304.84,1152.79 1304.84,1149.11C1304.84,1145.42 1301.85,1142.44 1298.16,1142.44L1296.23,1142.44C1293.28,1127.42 1283.32,1114.99 1269.85,1108.58L1268.51,1116.65C1268.08,1119.25 1265.84,1121.09 1263.29,1121.09C1263,1121.09 1262.72,1121.07 1262.42,1121.02C1259.54,1120.54 1257.58,1117.81 1258.06,1114.92L1260.29,1101.44C1260.7,1098.96 1258.78,1096.7 1256.26,1096.7L1242.42,1096.7C1239.9,1096.7 1237.98,1098.96 1238.39,1101.44L1240.62,1114.92C1241.1,1117.81 1239.15,1120.54 1236.26,1121.02C1235.97,1121.07 1235.68,1121.09 1235.39,1121.09C1232.84,1121.09 1230.6,1119.25 1230.17,1116.65L1228.84,1108.58C1215.36,1114.99 1205.4,1127.42 1202.45,1142.44L1200.52,1142.44C1196.83,1142.44 1193.85,1145.42 1193.85,1149.11C1193.85,1152.79 1196.83,1155.78 1200.52,1155.78Z" style="fill:rgb(255,255,255);fill-rule:nonzero;"/>
    </g>
    <g transform="matrix(1.5186,0,0,1.5186,-1724.41,-1601.24)">
        <path d="M1383.2,1298.5L1383.2,1294.68C1383.2,1290.44 1379.78,1287.02 1375.54,1287.02C1371.3,1287.02 1367.88,1290.44 1367.88,1294.68L1367.88,1298.5C1360.32,1297.89 1353.07,1296.36 1346.28,1294.01L1365.49,1252.85C1368.67,1253.85 1372.04,1254.39 1375.55,1254.39C1379.06,1254.39 1382.44,1253.85 1385.62,1252.85L1404.79,1294.06C1398.05,1296.36 1390.8,1297.89 1383.2,1298.5ZM1375.55,1207.5C1382.84,1207.5 1388.78,1213.44 1388.78,1220.74C1388.78,1228.03 1382.84,1233.97 1375.55,1233.97C1368.25,1233.97 1362.32,1228.03 1362.32,1220.74C1362.32,1213.44 1368.25,1207.5 1375.55,1207.5ZM1442.11,1325.71L1429.55,1298.81C1432.31,1297.03 1434.97,1295.08 1437.42,1292.99C1440.63,1290.18 1440.94,1285.38 1438.18,1282.17C1435.38,1279 1430.58,1278.64 1427.36,1281.4C1425.98,1282.63 1424.55,1283.7 1423.02,1284.82L1402.5,1240.81C1406.69,1235.2 1409.2,1228.26 1409.2,1220.74C1409.2,1205.74 1399.34,1193.01 1385.76,1188.68L1385.76,1175.61C1385.76,1173.28 1383.87,1171.39 1381.53,1171.39L1369.56,1171.39C1367.23,1171.39 1365.34,1173.28 1365.34,1175.61L1365.34,1188.68C1351.76,1193.01 1341.9,1205.74 1341.9,1220.74C1341.9,1228.25 1344.4,1235.18 1348.58,1240.78L1328.06,1284.77C1326.58,1283.7 1325.09,1282.58 1323.72,1281.4C1320.5,1278.64 1315.65,1279 1312.89,1282.22C1310.13,1285.38 1310.49,1290.23 1313.71,1292.99C1316.11,1295.08 1318.76,1297.03 1321.52,1298.81L1308.96,1325.71C1307.99,1327.91 1307.63,1330.31 1308.04,1332.61L1311.87,1354.72C1312.38,1357.68 1316.36,1358.24 1317.64,1355.48L1339.85,1307.9C1348.58,1311.11 1358.08,1313.11 1367.88,1313.82L1367.88,1318.32C1367.88,1322.55 1371.3,1325.97 1375.54,1325.97C1379.78,1325.97 1383.2,1322.55 1383.2,1318.32L1383.2,1313.82C1393.05,1313.16 1402.55,1311.11 1411.28,1307.95L1433.43,1355.48C1434.71,1358.24 1438.74,1357.68 1439.21,1354.72L1443.03,1332.61C1443.44,1330.31 1443.14,1327.91 1442.11,1325.71Z" style="fill:rgb(255,255,255);fill-rule:nonzero;"/>
    </g>
</svg>
