<?xml version="1.0" encoding="UTF-8" standalone="no"?>
<!DOCTYPE svg PUBLIC "-//W3C//DTD SVG 1.1//EN" "http://www.w3.org/Graphics/SVG/1.1/DTD/svg11.dtd">
<svg width="100%" height="100%" viewBox="0 0 512 512" version="1.1" xmlns="http://www.w3.org/2000/svg" xmlns:xlink="http://www.w3.org/1999/xlink" xml:space="preserve" xmlns:serif="http://www.serif.com/" style="fill-rule:evenodd;clip-rule:evenodd;stroke-linejoin:round;stroke-miterlimit:2;">
    <g transform="matrix(1.55586,0,0,1.55586,-4729.71,-1644.75)">
        <path d="M3314.79,1189.73L3292.81,1186.44C3290.08,1179.92 3289.33,1178.06 3286.6,1171.35L3299.89,1153.71C3303.37,1148.93 3302.93,1142.29 3298.77,1138.13L3280.83,1120.18C3276.61,1116.02 3269.96,1115.59 3265.18,1119L3247.54,1132.35C3240.9,1129.56 3239.04,1128.88 3232.39,1126.14L3229.23,1104.16C3228.48,1098.33 3223.39,1094.04 3217.49,1094.04L3192.03,1094.04C3186.13,1094.04 3181.17,1098.33 3180.3,1104.16L3177.13,1126.14C3170.49,1128.88 3168.75,1129.56 3162.1,1132.35L3144.34,1119C3139.56,1115.59 3133.04,1116.02 3128.82,1120.18L3110.94,1138.13C3106.71,1142.29 3106.16,1148.93 3109.76,1153.71L3122.92,1171.35C3120.19,1178.06 3119.44,1179.92 3116.71,1186.44L3094.85,1189.73C3088.96,1190.48 3084.61,1195.51 3084.61,1201.47L3084.61,1226.92C3084.61,1232.82 3088.96,1237.73 3094.85,1238.6L3116.71,1241.83C3119.44,1248.47 3120.19,1250.21 3122.92,1256.85L3109.76,1274.61C3106.16,1279.4 3106.71,1285.91 3110.94,1290.08L3128.82,1308.02C3133.04,1312.24 3139.56,1312.8 3144.34,1309.2L3146.58,1307.52C3146.45,1307.4 3146.33,1307.21 3146.27,1307.03C3142.36,1299.2 3143.16,1289.95 3148.38,1283.06L3174.09,1248.53C3164.65,1240.15 3158.69,1227.86 3158.69,1214.2C3158.69,1188.74 3179.3,1168.06 3204.76,1168.06C3230.22,1168.06 3250.84,1188.74 3250.84,1214.2C3250.84,1225.62 3246.68,1235.99 3239.85,1244.06L3237.67,1257.6L3242.45,1257.6C3251.27,1257.6 3259.28,1262.57 3263.26,1270.51C3267.17,1278.34 3266.36,1287.53 3261.14,1294.48L3255.56,1302L3265.18,1309.2C3269.96,1312.8 3276.61,1312.24 3280.83,1308.02L3298.77,1290.08C3302.93,1285.91 3303.37,1279.4 3299.89,1274.61L3286.6,1256.85C3289.33,1250.21 3290.08,1248.47 3292.81,1241.83L3314.79,1238.6C3320.57,1237.73 3324.92,1232.82 3324.92,1226.92L3324.92,1201.47C3324.92,1195.51 3320.57,1190.48 3314.79,1189.73Z" style="fill:rgb(32,58,114);fill-rule:nonzero;"/>
    </g>
    <g transform="matrix(1.55586,0,0,1.55586,-4729.71,-1644.75)">
        <path d="M3242.43,1273.15L3219.54,1273.15L3226.61,1228.2C3227.86,1220.29 3217.46,1216.13 3212.88,1222.37L3160.85,1292.29C3157.11,1297.29 3160.85,1304.36 3167.1,1304.36L3189.99,1304.36L3182.91,1349.32C3181.66,1357.22 3192.07,1361.39 3196.65,1355.14L3248.67,1285.22C3252.42,1280.22 3248.67,1273.15 3242.43,1273.15Z" style="fill:rgb(32,58,114);fill-rule:nonzero;"/>
    </g>
</svg>
