<?xml version="1.0" encoding="UTF-8" standalone="no"?>
<!-- Created with Inkscape (http://www.inkscape.org/) -->

<svg
   xmlns:dc="http://purl.org/dc/elements/1.1/"
   xmlns:cc="http://creativecommons.org/ns#"
   xmlns:rdf="http://www.w3.org/1999/02/22-rdf-syntax-ns#"
   xmlns:svg="http://www.w3.org/2000/svg"
   xmlns="http://www.w3.org/2000/svg"
   xmlns:sodipodi="http://sodipodi.sourceforge.net/DTD/sodipodi-0.dtd"
   xmlns:inkscape="http://www.inkscape.org/namespaces/inkscape"
   width="210mm"
   height="297mm"
   viewBox="0 0 210 297"
   version="1.1"
   id="svg8"
   inkscape:version="0.92.4 (5da689c313, 2019-01-14)"
   sodipodi:docname="logo.svg">
  <defs
     id="defs2" />
  <sodipodi:namedview
     id="base"
     pagecolor="#ffffff"
     bordercolor="#666666"
     borderopacity="1.0"
     inkscape:pageopacity="0.0"
     inkscape:pageshadow="2"
     inkscape:zoom="0.35"
     inkscape:cx="400"
     inkscape:cy="560"
     inkscape:document-units="mm"
     inkscape:current-layer="layer1"
     showgrid="false"
     inkscape:window-width="1920"
     inkscape:window-height="1001"
     inkscape:window-x="-9"
     inkscape:window-y="-9"
     inkscape:window-maximized="1" />
  <metadata
     id="metadata5">
    <rdf:RDF>
      <cc:Work
         rdf:about="">
        <dc:format>image/svg+xml</dc:format>
        <dc:type
           rdf:resource="http://purl.org/dc/dcmitype/StillImage" />
        <dc:title></dc:title>
      </cc:Work>
    </rdf:RDF>
  </metadata>
  <g
     inkscape:label="Layer 1"
     inkscape:groupmode="layer"
     id="layer1">
    <path
       id="path16"
       d="m 23.901613,67.723101 c -0.523457,7.648929 -1.429032,15.273676 -2.042361,22.920812 -0.877425,12.282087 -2.012116,24.542027 -3.032348,36.812277 -0.510833,6.32381 -0.866241,12.65977 -0.988525,19.00312 -0.0049,0.46257 -0.0098,0.92515 -0.01467,1.38772 0,0 -9.946715,5.03846 -9.946715,5.03846 v 0 c 0.017275,-0.47292 0.034548,-0.94584 0.051822,-1.41876 0.3056117,-6.43882 0.8246173,-12.86506 1.4146638,-19.28355 1.1519312,-12.2598 2.3168602,-24.51715 3.0624062,-36.810531 0.344689,-5.039151 0.696005,-10.078752 1.101799,-15.113463 0.16506,-2.047904 0.38828,-3.85165 0.434077,-5.885772 0.01165,-0.517494 -0.0305,-1.034802 -0.04575,-1.552202 0,0 10.005608,-5.098111 10.005608,-5.098111 z"
       inkscape:connector-curvature="0"
       style="stroke-width:0.26458332" />
    <path
       id="path22"
       d="m 15.105423,80.043371 c 4.952346,-4.519517 10.818027,-8.315833 17.054078,-10.745023 2.204825,-0.601522 4.526647,-1.047303 6.813213,-0.777478 1.555602,0.211765 3.00794,1.048774 4.310073,1.902248 1.240134,1.098548 2.041327,2.56631 2.718496,4.055182 0.9652,2.323409 1.169742,4.830834 1.158714,7.318954 -0.489217,4.719291 -3.402084,8.589973 -6.103956,12.311906 -4.225777,5.171006 -8.815496,10.04419 -13.633042,14.66592 -2.861923,2.45027 -5.596032,5.06835 -8.577762,7.37569 -28.4022115,16.42299 -0.96249,0.62629 -1.464617,0.90369 -3.443328,1.90228 -6.812305,3.93646 -10.2398337,5.86707 -3.0522854,1.71925 6.0697367,-3.49968 9.1140707,-5.23297 0.166565,-0.0948 -0.31357,0.22147 -0.479725,0.31702 -3.380141,1.9438 -6.772105,3.86697 -10.1581575,5.80045 -0.1961306,0.0469 -0.3922612,0.0938 -0.5883921,0.14071 0,0 8.8804176,-6.92435 8.8804176,-6.92435 v 0 c 0.169206,-0.0821 0.338413,-0.16418 0.507619,-0.24627 -3.047288,1.76673 -6.0941554,3.53419 -9.1418643,5.30019 -0.1656556,0.096 0.3303032,-0.19371 0.4957008,-0.29015 3.3785376,-1.96983 6.8029015,-3.86305 10.1361045,-5.90866 2.957073,-1.81478 -12.0162243,6.94357 -9.0073893,5.21596 8.0727763,-4.6352 18.0700853,-10.50562 1.5409036,-0.83232 3.2024997,-2.11208 5.8512747,-4.97828 8.8702947,-7.33131 4.87122,-4.52594 9.425586,-9.38924 13.702094,-14.480564 2.616311,-3.520503 5.461418,-7.170692 6.204077,-11.608649 0.07761,-2.319205 -0.113604,-4.672097 -0.970203,-6.851515 -0.590029,-1.27531 -1.289257,-2.58527 -2.414493,-3.46669 -1.248074,-0.713599 -2.493094,-1.44912 -3.97429,-1.466572 -2.198621,-0.006 -4.396827,0.343533 -6.445169,1.164085 -3.947957,1.914998 -2.53555,1.268084 7.031004,-4.219628 0.464146,-0.26625 -0.914299,0.55699 -1.357228,0.857216 -1.27844,0.86655 -2.490798,1.835282 -3.616112,2.892689 0,0 -10.364626,4.293169 -10.364626,4.293169 z"
       inkscape:connector-curvature="0"
       style="stroke-width:0.26458332" />
    <path
       id="path24"
       d="m 44.048124,116.31761 c -1.398043,2.99664 -2.500075,6.11577 -3.546547,9.24837 -0.782912,2.17621 -1.190236,4.44498 -1.396063,6.74035 -0.11543,1.59403 -0.105283,3.19327 -0.100491,4.79037 0.0091,1.33457 -0.107609,2.77038 0.637447,3.93876 1.347867,1.091 3.192476,1.1733 4.847016,1.32984 2.779363,0.30821 5.534551,0.0102 8.231693,-0.67282 1.508699,-0.34219 3.064274,-0.65578 4.498022,-1.25996 1.313257,-0.5534 2.539894,-1.32289 3.847473,-1.90038 3.97455,-1.9222 2.420189,-1.20216 -7.34614,4.27686 -0.340231,0.19087 0.663453,-0.41068 0.99124,-0.6222 0.96533,-0.62296 1.813907,-1.29838 2.662952,-2.07035 1.752383,-1.73679 2.912557,-3.92915 3.890806,-6.16639 1.166649,-2.67932 1.499481,-5.57907 1.699009,-8.46396 0.08564,-2.21686 0.244049,-4.44232 -0.08494,-6.64421 -0.291502,-1.62146 -1.407922,-2.25532 -2.890739,-2.64215 -2.36763,-0.36884 -4.791049,-0.48396 -7.178157,-0.27837 -2.719228,0.54845 -5.283425,1.71267 -7.828118,2.79198 -1.971426,0.89126 -4.049115,1.40054 -6.193229,1.61258 -0.27373,0.0162 -0.547458,0.0324 -0.821187,0.0487 0,0 9.030676,-6.67602 9.030676,-6.67602 v 0 c 0.262686,-0.0283 0.525372,-0.0565 0.788059,-0.0848 2.062215,-0.32205 4.039547,-0.95299 5.948963,-1.79892 2.612863,-1.04773 5.222848,-2.27594 8.065193,-2.5056 2.493465,-0.0785 5.038034,-0.0279 7.467094,0.59178 1.767822,0.69366 3.103933,1.75201 3.535119,3.6921 0.361506,2.28758 0.228838,4.59177 0.122592,6.89909 -0.183827,2.97604 -0.428815,5.99595 -1.537398,8.79594 -0.938946,2.34148 -2.019559,4.63173 -3.672158,6.5692 -1.109794,1.12402 -2.205579,2.11932 -3.578791,2.921 -10.447705,6.09938 -6.993913,4.44406 -11.806361,6.69385 -2.725214,1.30014 -5.454052,2.51471 -8.475102,2.96626 -2.795923,0.55478 -5.633913,0.75771 -8.473347,0.39021 -1.975469,-0.25154 -4.100745,-0.53875 -5.471943,-2.14071 -0.818449,-1.37202 -0.982104,-2.90708 -0.916096,-4.48655 -0.006,-1.6297 -0.0195,-3.26108 0.07923,-4.88864 0.184983,-2.38155 0.548857,-4.75446 1.346885,-7.01635 1.063516,-3.13213 2.174526,-6.24472 3.426738,-9.30785 0,0 10.2006,-4.671 10.2006,-4.671 z"
       inkscape:connector-curvature="0"
       style="stroke-width:0.26458332" />
    <path
       id="path26"
       d="m 67.428895,136.41798 c 2.173854,1.35235 4.526613,2.35322 6.855915,3.39399 1.662546,0.62873 3.307112,1.31072 5.050975,1.67997 0.991222,0.14701 0.495567,0.0861 1.486911,0.18321 0,0 -9.173898,6.48801 -9.173898,6.48801 v 0 c -1.037005,-0.16317 -0.518464,-0.0671 -1.555464,-0.28911 -1.75555,-0.48431 -3.451948,-1.16418 -5.127247,-1.87353 -2.374424,-1.0653 -4.711366,-2.20972 -6.971993,-3.50235 0,0 9.434801,-6.08019 9.434801,-6.08019 z"
       inkscape:connector-curvature="0"
       style="stroke-width:0.26458332" />
    <path
       id="path28"
       d="m 91.304495,110.808 c 0.691557,4.26249 1.273892,8.5401 1.851012,12.81958 0.349263,3.54881 1.03541,7.05061 1.504093,10.58332 0.245067,1.79586 0.289639,3.6067 0.305956,5.41602 0.02748,1.44984 -0.03141,2.90141 0.02897,4.35057 -3.32737,1.44358 -6.518222,3.2552 -9.982109,4.33075 -0.422109,0.13106 0.15962,-0.86945 0.236503,-1.3047 0.0925,-0.52369 0.178612,-1.0485 0.271642,-1.5721 0.373817,-2.10395 0.810382,-4.1856 1.28279,-6.26949 0.797761,-3.21385 1.765498,-6.37897 2.690857,-9.55649 0.561687,-1.96083 1.31055,-3.85565 2.154278,-5.71014 0.737295,-1.44994 1.382342,-2.95833 2.219253,-4.35436 0.716418,-1.11249 1.758474,-1.86286 2.813577,-2.61356 6.005123,-4.15233 8.004293,-5.98705 13.582163,-6.1699 1.72162,0.20572 2.63085,1.40886 3.16183,2.94453 0.63887,1.56899 0.88591,3.23585 1.054,4.9095 0.11625,1.62654 0.10334,3.24836 0.32125,4.86579 0.26808,1.92523 0.41987,3.86277 0.51067,5.80357 0.0636,1.59213 0.0666,3.18578 0.069,4.77891 4e-5,1.51046 -0.002,3.02092 -0.004,4.53137 -0.001,1.51053 -0.001,3.02106 -0.001,4.53159 0,0 -10.01261,5.10162 -10.01261,5.10162 v 0 c 4e-5,-1.51072 6e-5,-3.02145 7.9e-4,-4.53217 0.001,-1.51027 0.003,-3.02054 0.005,-4.53081 0.001,-1.58223 0.006,-3.16474 -0.0347,-4.7466 -0.0626,-1.90517 -0.17145,-3.8112 -0.45698,-5.69796 -0.25856,-1.63701 -0.3138,-3.26261 -0.35147,-4.91965 -0.12848,-1.59656 -0.32258,-3.19066 -0.94863,-4.68145 -0.35596,-1.20529 -1.05401,-1.81607 -2.3703,-1.69701 -4.575827,0.38735 -10.256095,4.53976 5.97311,-4.56299 -1.10638,0.59983 -2.11193,1.30018 -3.00453,2.19212 -0.99858,1.26484 -1.57652,2.80559 -2.31153,4.22949 -0.97285,1.74657 -1.59682,3.65467 -2.273398,5.52877 -0.876218,3.20812 -2.05857,6.33162 -2.847851,9.56858 -0.585687,2.56637 -1.066914,5.12487 -1.460627,7.72682 -0.06188,0.40895 0.15126,0.99434 -0.1914,1.22598 -3.226506,2.1812 -6.772674,3.84743 -10.15901,5.77115 0.0725,-1.45519 0.02286,-2.91389 0.04081,-4.37017 -0.01106,-1.77659 -0.03384,-3.55565 -0.211658,-5.325 -0.375092,-3.55897 -0.992032,-7.08617 -1.348997,-10.64734 -0.557559,-4.23666 -1.126194,-8.47449 -1.997033,-12.66041 0,0 9.890149,-5.28773 9.890149,-5.28773 z"
       inkscape:connector-curvature="0"
       style="stroke-width:0.26458332" />
    <path
       id="path44"
       d="m 125.6382,76.744964 c 4.36292,0.267692 8.67529,-0.409379 12.9808,-1.002853 4.91708,-0.557416 9.63163,-2.01036 14.34191,-3.444147 1.63091,-0.532599 3.21712,-1.186821 4.81991,-1.796116 0,0 -8.76417,6.863725 -8.76417,6.863725 v 0 c -1.59108,0.595342 -3.17756,1.207987 -4.80728,1.692471 -4.71583,1.419376 -9.47616,2.684399 -14.38266,3.257309 -4.40204,0.60284 -8.80851,1.15356 -13.26355,1.023014 0,0 9.07504,-6.593403 9.07504,-6.593403 z"
       inkscape:connector-curvature="0"
       style="stroke-width:0.26458332" />
    <path
       id="path46"
       d="m 143.95996,58.088574 c -1.28746,6.320989 -1.65396,12.766749 -1.98258,19.192923 -0.49472,12.717055 -0.49435,25.446383 -0.49466,38.170953 -0.0342,8.83659 0.59039,17.64543 1.27697,26.44792 0.13873,1.84057 0.25539,3.6772 0.49418,5.50734 0,0 -9.87223,5.17793 -9.87223,5.17793 v 0 c -0.20208,-1.87881 -0.26525,-3.7595 -0.35088,-5.64745 -0.47702,-8.90538 -0.93801,-17.81263 -0.8761,-26.73511 0.0485,-12.70269 0.0481,-25.406791 0.27918,-38.107754 0.19369,-6.393982 0.48915,-12.778841 1.43497,-19.1135 0,0 10.09115,-4.893252 10.09115,-4.893252 z"
       inkscape:connector-curvature="0"
       style="stroke-width:0.26458332" />
    <path
       id="path48"
       d="m 169.31144,114.93395 c -2.75535,3.44943 -5.30505,7.06228 -7.51147,10.88665 -1.47228,2.52552 -2.5588,5.25156 -3.44103,8.03226 -0.48428,1.55337 -0.60634,3.17116 -0.65901,4.7866 -0.0528,1.67133 1.07073,2.58286 2.16453,3.64996 1.71725,1.38558 3.80363,1.90343 5.933,2.24924 1.99657,0.33769 3.96674,0.27191 5.64989,-0.93008 -16.05528,9.4752 -8.35461,6.06677 -6.29693,1.65896 0.72571,-1.89709 1.19562,-3.8871 1.63362,-5.86791 0.39311,-1.92817 0.49719,-3.89638 0.5556,-5.85821 0.0331,-1.57048 0.0239,-3.14144 0.0197,-4.71215 -0.005,-1.50887 -0.007,-3.01775 -0.008,-4.52664 -1.2e-4,-0.2516 -2.7e-4,-0.50321 -2.7e-4,-0.75481 -1.8e-4,-0.46197 -0.0543,-1.62811 -0.0262,-1.6415 10.3208,-4.91981 10.10057,-8.09973 10.03075,-3.5735 -0.0207,2.08288 -0.0124,4.16583 -0.005,6.24875 -0.12881,1.49672 0.16908,2.9378 0.42883,4.39825 0.28292,1.43008 0.88747,2.74696 1.68186,3.96066 0.82027,1.05976 1.79047,1.99858 3.06348,2.45936 1.05455,0.60737 2.23172,0.8842 3.3602,1.3169 0.46275,0.3472 0.96679,0.60103 1.49684,0.82285 0,0 -9.39382,6.21364 -9.39382,6.21364 v 0 c -0.48498,-0.25048 -0.95235,-0.53124 -1.44954,-0.75685 -1.13818,-0.43926 -2.32685,-0.74531 -3.3865,-1.37361 -1.36359,-0.71492 -2.48348,-1.7787 -3.39393,-3.01833 -0.85408,-1.35011 -1.55379,-2.78202 -1.91342,-4.34742 -0.25334,-1.52501 -0.64141,-3.02382 -0.48189,-4.58636 0.008,-2.08132 0.016,-4.16268 -0.005,-6.24396 -0.0739,-4.71231 -0.27212,-1.06046 10.03077,-6.6486 0.001,-7.9e-4 -0.0204,0.24967 -0.0257,0.91262 -1.4e-4,0.0179 5.3e-4,1.49132 5.3e-4,1.50949 7.9e-4,1.5084 0.002,3.01679 0.006,4.52518 0.003,1.58323 0.0114,3.16665 -0.018,4.74971 -0.0534,2.02338 -0.15904,4.04894 -0.48805,6.04925 -0.40648,2.02837 -0.89814,4.05382 -1.54184,6.0178 -1.70684,5.5398 -7.98473,7.47441 -12.6212,10.09347 -1.98438,0.73953 -3.99954,0.75453 -6.07025,0.30736 -2.29224,-0.48344 -4.52753,-1.20084 -6.32121,-2.78001 -1.31016,-1.26998 -2.53731,-2.50771 -2.63487,-4.44733 0.031,-1.70677 0.10626,-3.42253 0.5626,-5.07871 0.85074,-2.87986 1.99623,-5.69681 3.47226,-8.31246 2.13194,-3.85354 4.69394,-7.43657 7.30817,-10.97602 0,0 10.2936,-4.4145 10.2936,-4.4145 z"
       inkscape:connector-curvature="0"
       style="stroke-width:0.26458332" />
    <path
       id="path50"
       d="m 206.00745,116.33592 c -0.59277,3.71767 -0.98757,7.46053 -1.25033,11.21473 -0.14962,2.38105 -0.1865,4.76678 -0.19446,7.15183 -2e-4,1.55853 0.007,3.11705 0.0109,4.67558 0.003,1.50145 0.004,3.00291 0.004,4.50437 2.2e-4,1.51052 1.3e-4,3.02103 9e-5,4.53155 0,0 -10.01257,5.10165 -10.01257,5.10165 v 0 c 1e-5,-1.51038 5e-5,-3.02075 -2.6e-4,-4.53112 -5.3e-4,-1.5008 -0.001,-3.00158 -0.004,-4.50237 -0.003,-1.56464 -0.008,-3.12931 0.003,-4.69393 0.0261,-2.42409 0.099,-4.84773 0.26597,-7.26667 0.26342,-3.74188 0.69527,-7.46639 1.14853,-11.18954 0,0 10.02909,-4.99608 10.02909,-4.99608 z"
       inkscape:connector-curvature="0"
       style="stroke-width:0.26458332" />
    <path
       id="path52"
       d="m 202.42911,90.293528 c 0.49726,2.504987 0.9081,5.02408 1.17794,7.563654 0.0279,0.334912 0.0558,0.669827 0.0838,1.004742 0,0 -9.94627,5.158976 -9.94627,5.158976 v 0 c -0.0203,-0.32925 -0.0406,-0.65851 -0.0608,-0.98776 -0.21189,-2.49758 -0.54559,-4.987768 -1.14397,-7.425213 0,0 9.88938,-5.314399 9.88938,-5.314399 z"
       inkscape:connector-curvature="0"
       style="stroke-width:0.26458332" />
  </g>
</svg>
